<?xml version="1.0" encoding="UTF-8"?>
<svg version="1.1" xmlns="http://www.w3.org/2000/svg" width="512" height="512">
<path d="M0 0 C9.97207361 11.07159781 15.74661094 24.27401988 15.3125 39.359375 C14.07479356 49.81799438 11.36092571 59.49321983 5 68 C4.21302734 69.05767578 4.21302734 69.05767578 3.41015625 70.13671875 C-3.7107421 78.93312259 -12.82558556 83.52437572 -23 88 C-12.70008016 127.79449967 0.52173324 177.71889576 37.5 201.4375 C50.45220677 208.95316814 63.90344415 212.15539879 78.75 209 C108.18566547 200.72723127 128.41412064 176.62808254 143 151 C145.0408493 147.31280244 147.03308245 143.60211465 149 139.875 C149.46921875 138.98611084 149.9384375 138.09722168 150.421875 137.18139648 C152.6589363 132.86230552 154.64547954 128.69464478 156 124 C155.02160156 123.18208984 155.02160156 123.18208984 154.0234375 122.34765625 C145.41206276 114.91748778 137.98028906 106.78825943 136.80371094 95.04003906 C135.88169159 82.04478521 137.83490154 71.19430911 146.27734375 60.80859375 C153.88894627 52.8172741 163.08980898 47.50223435 174.19921875 46.796875 C187.00736761 46.62476102 197.5584006 49.19699669 207.23046875 58.0390625 C217.24053078 68.66888447 219.58731469 79.05195789 219.33984375 93.1484375 C218.87542575 103.10355531 214.08356079 112.075919 207 119 C199.90935389 124.4372219 192.1600745 129.26756231 183 129 C182.89567815 129.79782017 182.7913563 130.59564034 182.68387318 131.41763687 C181.31475949 141.46721142 179.47927509 151.38901448 177.54760742 161.34277344 C177.20046119 163.14493855 176.85361211 164.94716092 176.5070343 166.74943542 C175.57182929 171.60821731 174.63251202 176.46619583 173.69242263 181.32403469 C172.70204161 186.44563545 171.7155324 191.56798193 170.72859192 196.69024658 C168.8567164 206.40225913 166.98143575 216.11361085 165.1048978 225.82472348 C162.98808677 236.78009298 160.87496203 247.73617237 158.7622093 258.69232512 C155.28497775 276.72408276 151.80488628 294.75528628 148.32269418 312.78608656 C145.54121193 327.1893333 142.76603599 341.59377778 140 356 C140.53979492 356.39541992 141.07958984 356.79083984 141.63574219 357.19824219 C142.34891602 357.72579102 143.06208984 358.25333984 143.796875 358.796875 C144.50166992 359.31604492 145.20646484 359.83521484 145.93261719 360.37011719 C152.96934671 365.91773248 157.21122015 372.9795171 158.3828125 381.921875 C158.73532784 390.99326969 156.61036065 399.08350229 151 406.3125 C143.70694877 413.93491483 134.39185635 416.76500537 124.12615812 417.09136236 C120.63700376 417.13197305 117.14922657 417.13805159 113.65983582 417.13371277 C112.30783583 417.1355831 110.95583638 417.13788469 109.60383779 417.14057809 C105.9034269 417.14667495 102.20303868 417.146565 98.50262392 417.14538372 C94.50592158 417.14517917 90.50922643 417.15070353 86.51252747 417.15544128 C78.68796763 417.16373664 70.86341533 417.16649561 63.03885146 417.16705366 C56.67710241 417.16752932 50.31535583 417.16958657 43.95360756 417.17275429 C25.90588446 417.18155758 7.85816731 417.18617414 -10.18955795 417.18542381 C-11.16187931 417.18538386 -12.13420068 417.1853439 -13.13598633 417.18530273 C-14.59625466 417.18524141 -14.59625466 417.18524141 -16.08602335 417.18517885 C-31.86288487 417.18477241 -47.63972252 417.19434245 -63.41657714 417.2084411 C-79.62691311 417.22281252 -95.83723744 417.22971087 -112.04757994 417.22884732 C-121.14413981 417.22851564 -130.24067465 417.2312505 -139.33722878 417.24202538 C-147.08192428 417.25114041 -154.8265834 417.25329735 -162.57128195 417.24651595 C-166.51997033 417.24325591 -170.46858896 417.24317542 -174.41727066 417.2518692 C-178.03761368 417.25975788 -181.65783191 417.25827875 -185.27817198 417.24958507 C-187.19632532 417.247335 -189.1144826 417.25486007 -191.03262073 417.26282471 C-203.67152074 417.21269739 -213.98970321 415.89057789 -223.81640625 407.4375 C-229.70687333 401.29606064 -232.17689576 393.31666984 -232.5 384.9375 C-232.14214223 376.01414337 -228.97626723 369.4747196 -223.07421875 362.88671875 C-221.23536762 361.21409145 -219.39609488 359.81381367 -217.37036133 358.38208008 C-216.73939041 357.93504227 -216.10841949 357.48800446 -215.45832825 357.02742004 C-214.97707993 356.68837143 -214.4958316 356.34932281 -214 356 C-214.16085524 355.1675668 -214.32171047 354.33513361 -214.48744011 353.47747517 C-218.45624591 332.93829002 -222.4237364 312.39885116 -226.38987541 291.85915089 C-228.30813284 281.92510656 -230.22679569 271.9911409 -232.14648438 262.05737305 C-246.8229178 186.10897449 -246.8229178 186.10897449 -252.42047501 156.56571007 C-252.84862299 154.30650568 -253.27760592 152.04745935 -253.7074852 149.78858376 C-254.27935892 146.78105439 -254.84763436 143.77287146 -255.41455078 140.7644043 C-255.57884708 139.90291212 -255.74314339 139.04141994 -255.91241837 138.15382195 C-256.49193323 135.05860412 -257 132.15668017 -257 129 C-258.0725 128.95875 -259.145 128.9175 -260.25 128.875 C-268.51900371 127.84505292 -277.30251509 122.96248421 -283 117 C-289.60718787 107.93299327 -293.58258551 99.9721827 -293.4375 88.6875 C-293.42920166 87.85299316 -293.42090332 87.01848633 -293.41235352 86.15869141 C-293.11319335 75.19516331 -289.61600859 66.94648628 -282 59 C-271.94904015 49.72077747 -262.0713887 46.64823891 -248.56640625 46.7890625 C-237.70356871 47.43155234 -228.1700605 52.33993655 -220.6875 60.1875 C-211.56300871 71.06670116 -209.88622113 83.30082343 -211 97 C-213.43558733 108.94133675 -220.94229868 116.43178734 -230 124 C-222.45455988 143.67881116 -211.69757695 161.97147784 -198 178 C-196.88044922 179.33804688 -196.88044922 179.33804688 -195.73828125 180.703125 C-182.1242201 196.39985251 -164.22157601 208.23824541 -143.171875 210.2734375 C-126.96229636 210.87550756 -112.82292301 203.57429748 -101 193 C-100.23945313 192.32195312 -99.47890625 191.64390625 -98.6953125 190.9453125 C-71.74282799 165.48500706 -58.64875533 123.21852269 -51 88 C-52.03898438 87.52691406 -53.07796875 87.05382812 -54.1484375 86.56640625 C-68.34355675 79.91792982 -79.18594244 71.85901983 -85.28125 56.84375 C-90.32070366 42.30132657 -90.43980848 27.96736786 -83.8125 13.75 C-76.53015612 0.55075171 -65.785266 -8.20518419 -51.625 -13.1875 C-32.5718402 -17.45803582 -14.65154183 -13.09332764 0 0 Z M-61 18 C-66.38773657 26.81873299 -68.79402453 35.44564369 -66.3515625 45.73046875 C-63.2562465 54.26242953 -58.3121532 60.01218167 -50.4375 64.5 C-42.55493575 68.08208912 -34.95387387 68.61424934 -26.69140625 65.921875 C-18.12412423 62.02862824 -12.51564542 56.78551122 -8.5625 48.25 C-5.55823275 39.77042318 -6.00590569 31.40188759 -9.7421875 23.25 C-14.01824648 15.6009007 -19.96200061 11.40449971 -27.75 7.6875 C-40.49706774 4.9910049 -52.40635288 7.87859339 -61 18 Z M-267.5234375 75.33984375 C-271.52772495 79.84201879 -272.57660732 84.88723924 -272.34765625 90.73046875 C-271.5288236 96.07588189 -269.0987058 100.30812046 -265.0625 103.875 C-259.13557861 107.9875577 -254.14691282 108.87157473 -247 108 C-241.08714584 106.19329456 -237.43644551 103.05359633 -234 98 C-231.46517393 92.32681785 -231.2225384 86.94016198 -233 81 C-235.23592566 75.57893497 -239.61856214 71.53391838 -244.9375 69.12109375 C-253.62901957 66.44245733 -261.12794602 69.39700121 -267.5234375 75.33984375 Z M162.4765625 75.3359375 C158.75458061 79.53055201 157.3905563 84.32608205 157.66015625 89.890625 C158.66430021 96.12324266 161.04431222 100.63701199 166.0625 104.5 C171.50792557 108.2626741 176.52472254 108.66388432 183 108 C188.97702265 106.35080394 192.32632575 102.94528942 195.87109375 98 C198.31980272 93.66180279 198.62301675 88.89513163 198 84 C196.08980681 77.85516168 192.40348359 73.43652513 187 70 C177.54465957 66.47427984 169.71361084 68.62762329 162.4765625 75.3359375 Z M-38 123 C-38.30550781 124.00933594 -38.61101562 125.01867187 -38.92578125 126.05859375 C-47.01511821 151.93165601 -58.49692473 177.12214878 -76 198 C-76.72703125 198.87914062 -77.4540625 199.75828125 -78.203125 200.6640625 C-92.15542007 216.8748226 -110.84837001 229.41156895 -132.58447266 231.21435547 C-160.61093552 232.81316382 -182.63339909 222.60604469 -203.4375 204.375 C-210.59918904 197.6915345 -216.41729518 190.23529745 -222.1796875 182.34375 C-222.78039062 181.5703125 -223.38109375 180.796875 -224 180 C-224.33 180 -224.66 180 -225 180 C-224.38132531 188.74658054 -222.7271611 197.27478374 -221.05664062 205.86694336 C-220.75232404 207.44966515 -220.44839491 209.03246149 -220.14482117 210.61532593 C-219.32452735 214.88625169 -218.49870691 219.15609138 -217.67173576 223.42572856 C-216.80573267 227.90137495 -215.94449982 232.37793934 -215.0826416 236.85438538 C-213.63641116 244.36225077 -212.18676349 251.8694498 -210.73486328 259.3762207 C-209.05582288 268.05750209 -207.38132697 276.73965006 -205.70943499 285.42231077 C-203.92791383 294.67413326 -202.14329118 303.92535539 -200.35764885 313.17638326 C-199.84343379 315.84148262 -199.32977882 318.50668943 -198.8162384 321.17191887 C-198.01051588 325.35264808 -197.20270476 329.53296847 -196.39325905 333.71297836 C-196.09626243 335.24835758 -195.79995693 336.78387066 -195.50438499 338.31952477 C-195.10160847 340.41150121 -194.69633791 342.50297913 -194.29040527 344.59434509 C-193.9508292 346.35161879 -193.9508292 346.35161879 -193.60439301 348.14439297 C-193.04470532 351.05411044 -193.04470532 351.05411044 -192 354 C-89.7 354 12.6 354 118 354 C122.16580692 334.04003882 122.16580692 334.04003882 126.13793945 314.04418945 C126.4144067 312.62018372 126.69100756 311.19620393 126.96772766 309.77224731 C127.70048962 305.99898338 128.43110319 302.22530706 129.16098428 298.45148492 C129.61881494 296.08467415 130.07708366 293.71794859 130.53548241 291.35124779 C132.13891035 283.0723397 133.74034204 274.79304807 135.34008789 266.51342773 C136.82621793 258.82217228 138.31721146 251.13186976 139.81028587 243.44195968 C141.10029242 236.79665272 142.38673129 230.15066146 143.67042893 223.50413293 C144.43384641 219.55181818 145.19873863 215.59980294 145.96734047 211.64849281 C146.68639564 207.95134623 147.40101791 204.25337034 148.11222649 200.55470657 C148.37344725 199.20031028 148.63625679 197.84621929 148.90077972 196.49246407 C149.26171542 194.64399047 149.61634225 192.79428834 149.97065735 190.9445343 C150.17064488 189.91103505 150.37063242 188.8775358 150.57668018 187.81271839 C150.97643538 185.15657346 151.08102296 182.68061813 151 180 C148.28589988 182.61949097 145.95090237 185.2998334 143.6875 188.3125 C126.81565677 209.50403594 105.19669447 226.1240683 78 231 C54.73735821 232.76471856 34.11398841 227.82199741 16.0625 212.625 C-10.35042365 189.35579942 -25.90145164 156.16575882 -36 123 C-36.66 123 -37.32 123 -38 123 Z M-208.27105904 378.38607693 C-210.11797111 381.17835623 -211 382.65121972 -211 386 C-209.40853113 390.18807597 -207.84099391 392.69795553 -204 395 C-201.30546198 395.44912089 -201.30546198 395.44912089 -198.30557346 395.38031673 C-197.13723864 395.38875668 -195.96890382 395.39719662 -194.76516491 395.40589231 C-192.83839276 395.39687724 -192.83839276 395.39687724 -190.87269592 395.38768005 C-189.49511942 395.39185186 -188.11754635 395.39732853 -186.73997968 395.40399987 C-182.95047628 395.41849353 -179.16118965 395.41419762 -175.37167418 395.40683305 C-171.28638182 395.40211333 -167.20113718 395.4146006 -163.11585999 395.42485046 C-155.11093203 395.44206733 -147.10608247 395.44287251 -139.1011408 395.43763756 C-132.59621688 395.43360001 -126.09131617 395.43503448 -119.58639336 395.44038582 C-118.66140828 395.44113424 -117.7364232 395.44188266 -116.78340827 395.44265376 C-114.90444505 395.4441852 -113.02548184 395.44572355 -111.14651864 395.44726873 C-93.51655377 395.46100421 -75.88663326 395.45554872 -58.25666939 395.44408352 C-42.11980738 395.43414991 -25.98306 395.44709215 -9.84621567 395.47101771 C6.71427879 395.49538683 23.2747198 395.50502198 39.83523184 395.49836498 C49.13624598 395.49486791 58.43717192 395.49713697 67.73817253 395.51461601 C75.65591819 395.52931068 83.57351355 395.53000937 91.49125617 395.5125451 C95.5324043 395.50401008 99.57328365 395.50194617 103.61441803 395.51719666 C107.31245853 395.53097981 111.00999837 395.52636368 114.70800943 395.50695742 C116.6824876 395.50138391 118.65699086 395.51552196 120.63142151 395.53031152 C122.38783536 395.51559009 122.38783536 395.51559009 124.17973232 395.50057125 C125.19027815 395.50046391 126.20082398 395.50035658 127.24199241 395.50024599 C130.77184701 394.86000279 132.43763984 393.46413057 135 391 C136.67073042 388.23785028 136.67073042 388.23785028 137 385 C135.61165744 380.61576033 134.85993526 378.57329017 131 376 C128.3900923 375.69515357 128.3900923 375.69515357 125.39738655 375.73993778 C124.22407599 375.73287219 123.05076542 375.7258066 121.84189999 375.7185269 C119.89908573 375.72214953 119.89908573 375.72214953 117.91702271 375.72584534 C116.53206113 375.72139498 115.1471021 375.71608161 113.76214683 375.70997661 C109.94762961 375.69576194 106.13319374 375.69413397 102.31865382 375.69457352 C98.20812583 375.69292837 94.09763166 375.6798676 89.98712158 375.66838074 C80.99551524 375.64550886 72.00393246 375.63760791 63.01230097 375.63255429 C57.40049925 375.62930008 51.78870442 375.62277932 46.17690659 375.6155529 C30.64653557 375.59598482 15.11617096 375.5795816 -0.41421318 375.57667637 C-1.40846739 375.5764888 -2.4027216 375.57630123 -3.42710472 375.57610798 C-5.44279106 375.57574172 -7.45847741 375.57537802 -9.47416376 375.57501686 C-10.47478444 375.57483405 -11.47540513 375.57465124 -12.50634766 375.57446289 C-13.50818616 375.57428234 -14.51002467 375.57410179 -15.54222192 375.57391577 C-31.7826273 375.57037267 -48.02290021 375.54334274 -64.26325963 375.505965 C-80.92767875 375.46791742 -97.59203206 375.44851916 -114.25649559 375.44821686 C-123.61680175 375.44763152 -132.97694985 375.43909021 -142.33721542 375.41021919 C-150.30623391 375.3857528 -158.2750367 375.37839025 -166.24408256 375.39346672 C-170.31161591 375.40065495 -174.37872292 375.39969656 -178.44620895 375.37705612 C-182.16842308 375.3565356 -185.88988124 375.35900038 -189.61208655 375.37993097 C-191.59955561 375.38510389 -193.58704131 375.36559333 -195.57441318 375.34526926 C-202.49376331 375.15762689 -202.49376331 375.15762689 -208.27105904 378.38607693 Z " fill="#000000" transform="translate(293,55)"/>
</svg>
